PathFileType	3	(X/Y/Z)	D:\Vicon Database\Healthy Subjects\S0040\Jan. 30, 2020\Force Plate Walk 6.trc
DataRate	CameraRate	NumFrames	NumMarkers	Units	OrigDataRate	OrigDataStartFrame	OrigNumFrames
100.0	100.0	6	53	mm	100.0	572	350	
Frame#	Time	sternum_cluster1			sternum_cluster2			sternum_cluster3			left_asis			right_asis			left_psis			right_psis			sacrum_cluster1			sacrum_cluster2			sacrum_cluster3			left_lat_femoral_epicondyle			left_anterior_thigh15			left_anterior_thigh25			left_anterior_thigh50			left_lateral_thigh25			left_lateral_thigh50			left_thigh_cluster1			left_thigh_cluster2			left_thigh_cluster3			left_fibular_head			left_tibial_tuberosity			left_anterior_shank30			left_lateral_malleolus			left_shank_cluster1			left_shank_cluster2			left_shank_cluster3			left_heel			left_metatarsal2			left_foot_cluster1			left_foot_cluster2			left_foot_cluster3			right_lat_femoral_epicondyle			right_anterior_thigh15			right_anterior_thigh25			right_anterior_thigh50			right_lateral_thigh25			right_lateral_thigh50			right_thigh_cluster1			right_thigh_cluster2			right_thigh_cluster3			right_fibular_head			right_tibial_tuberosity			right_lateral_distal_shank			right_anterior_shank30			right_lateral_malleolus			right_shank_cluster1			right_shank_cluster2			right_shank_cluster3			right_heel			right_metatarsal2			right_foot_cluster1			right_foot_cluster2			right_foot_cluster3			
		X1	Y1	Z1	X2	Y2	Z2	X3	Y3	Z3	X4	Y4	Z4	X5	Y5	Z5	X6	Y6	Z6	X7	Y7	Z7	X8	Y8	Z8	X9	Y9	Z9	X10	Y10	Z10	X11	Y11	Z11	X12	Y12	Z12	X13	Y13	Z13	X14	Y14	Z14	X15	Y15	Z15	X16	Y16	Z16	X17	Y17	Z17	X18	Y18	Z18	X19	Y19	Z19	X20	Y20	Z20	X21	Y21	Z21	X22	Y22	Z22	X23	Y23	Z23	X24	Y24	Z24	X25	Y25	Z25	X26	Y26	Z26	X27	Y27	Z27	X28	Y28	Z28	X29	Y29	Z29	X30	Y30	Z30	X31	Y31	Z31	X32	Y32	Z32	X33	Y33	Z33	X34	Y34	Z34	X35	Y35	Z35	X36	Y36	Z36	X37	Y37	Z37	X38	Y38	Z38	X39	Y39	Z39	X40	Y40	Z40	X41	Y41	Z41	X42	Y42	Z42	X43	Y43	Z43	X44	Y44	Z44	X45	Y45	Z45	X46	Y46	Z46	X47	Y47	Z47	X48	Y48	Z48	X49	Y49	Z49	X50	Y50	Z50	X51	Y51	Z51	X52	Y52	Z52	X53	Y53	Z53	
572	5.71	-544.58252	1416.1053	-170.65129	-558.37207	1389.5259	-162.14262	-556.30444	1392.1547	-199.91707	-553.1311	1034.1665	-46.65292	-563.25183	1051.8727	-296.78671	-388.95132	1047.7214	-106.96404	-390.32788	1049.863	-224.59837	-378.17212	1104.1692	-171.01973	-373.30167	1079.0271	-183.28964	-370.95236	1072.7646	-143.80026	-403.42911	520.17633	-21.3276	-526.79401	565.73944	-50.411793	-559.08771	653.13647	-36.190681	-575.89996	795.6441	-29.658728	-429.27875	667.98792	-10.08604	-463.22525	809.81995	7.7574015	-448.55646	768.71222	13.83661	-440.7601	739.86975	12.65643	-477.02213	744.17725	24.110792	-366.02426	453.14468	-12.402223				-215.43575	240.89409	-82.441078	-99.205963	194.73013	-63.335636	-374.34955	361.19827	-88.2248	-354.20157	339.48212	-80.268631	-353.44803	345.36554	-117.19508	-37.224998	242.1032	-108.29745	-142.98598	52.11338	-102.7821	-157.87538	124.42114	-88.139481	-151.5013	94.531364	-81.881371	-164.61449	96.375694	-117.80041	-673.90613	526.8833	-307.09204	-720.69421	639.00415	-248.97881	-706.8064	717.60645	-251.67137	-662.17426	836.1156	-263.88098	-618.7146	675.17706	-336.4834	-566.90314	813.20764	-367.01285	-578.21033	760.65204	-371.99783	-599.19867	740.10632	-368.14297	-562.88422	725.33081	-363.17801	-680.75067	459.66919	-309.19611	-732.99493	462.73828	-259.76636	-703.36383	190.57855	-286.12552	-745.63788	211.92915	-238.76054	-714.06384	91.548126	-272.67191	-728.50134	394.37997	-204.16765	-725.87677	366.74194	-196.79436	-751.13721	366.86771	-224.68794	-639.60883	56.953091	-236.72491	-857.81702	73.745506	-227.17773	-799.50262	117.03684	-226.93707	-823.76447	103.8804	-217.98724	-824.62085	106.60284	-255.63603
573	5.72	-558.82062	1416.9764	-171.13884	-572.63525	1390.3967	-162.50453	-570.78571	1393.0096	-200.33963	-567.66534	1034.4449	-47.430424	-578.25604	1053.1024	-297.64633	-403.65677	1046.798	-107.47353	-404.99091	1050.6719	-225.02437	-392.72632	1104.4392	-171.10004	-387.9747	1078.7799	-183.23645	-385.7074	1072.5977	-144.85394	-428.27173	517.50897	-20.013847	-550.4729	565.69324	-46.923576	-580.69293	654.0022	-33.575653	-593.81592	796.95935	-29.696026	-451.70712	665.16333	-10.209658	-481.03226	808.27643	7.3069844	-467.25671	766.98737	13.572261	-460.22095	738.28284	12.520415	-496.50626	743.70709	24.346996	-391.28116	452.24295	-10.340501				-235.75395	244.03085	-79.760475	-118.91956	201.78545	-61.591061							-378.03836	343.1008	-113.68795	-63.105583	254.83791	-106.48067	-151.91165	55.99707	-100.95417	-172.54709	127.41969	-85.322395	-163.34874	97.879051	-79.64975	-178.02922	98.967285	-114.91525	-689.27899	528.20526	-309.28122	-734.04578	639.82025	-248.58463	-720.33368	718.34869	-251.29649	-676.37872	837.40106	-263.47958	-635.51721	677.63861	-338.06915	-582.73724	815.48016	-368.09329	-596.30042	763.00592	-374.82919	-615.19794	742.25989	-369.21896	-579.41052	727.43018	-365.67502	-692.8634	460.16501	-309.866	-744.00067	462.23846	-259.68881	-708.32953	191.24312	-286.62811	-750.10034	211.20082	-238.39038	-714.74017	91.371994	-272.11597	-736.78876	393.93784	-204.01785	-733.38165	366.29504	-196.76631	-759.01013	365.9798	-224.24539	-639.99103	57.24625	-236.70038	-858.55078	71.567078	-226.79944	-800.91534	116.06598	-226.00839	-824.922	102.41315	-217.32303	-825.59723	105.14783	-255.16373
574	5.73	-572.99426	1417.918	-171.56633	-586.75922	1391.3934	-162.81544	-585.13885	1393.9457	-200.65869	-581.84662	1034.8187	-48.121628	-592.92517	1054.5856	-298.36227	-418.0632	1046.5068	-107.51846	-419.36008	1051.5419	-225.59131	-406.69727	1104.7949	-171.06451	-402.05765	1079.7178	-183.7594	-399.8577	1072.9962	-144.7934	-453.1019	515.3457	-19.051382	-574.6319	567.11481	-44.254276	-601.92426	655.36896	-31.505953	-611.30609	798.59192	-29.664513	-471.73959	663.54803	-9.5374079	-498.71393	807.10132	7.0197048	-485.43713	765.13385	13.403475	-479.41074	736.51593	12.282186	-515.15442	742.47528	24.175182	-416.92938	451.69839	-8.8107128				-257.2178	246.94966	-77.591011	-140.15761	208.07681	-60.075588							-402.71109	341.4801	-110.73472	-90.2024	265.53195	-104.8052	-162.7542	60.190899	-99.248741	-188.40404	129.93578	-83.309822	-176.98618	101.15977	-77.771179	-191.7834	101.26994	-113.09758	-701.83636	528.75787	-310.06	-746.5769	640.25549	-248.66536	-733.10419	718.72357	-250.94139	-689.8147	838.35773	-262.63605	-650.35962	679.62286	-339.06277	-598.05676	817.5575	-368.94559	-610.08838	764.88464	-374.82458	-630.31152	744.23181	-370.06058	-594.85315	729.4342	-367.72189	-703.95728	460.43579	-310.56116	-754.07361	461.58588	-259.79309	-712.41858	191.5303	-286.92697	-754.03473	210.66203	-238.26395	-715.49341	91.309418	-271.83588	-744.63293	393.65808	-204.19136	-740.57349	365.97443	-197.02843	-766.40375	365.21695	-224.28784	-640.24335	57.433033	-236.73778	-859.0022	70.005165	-226.53307	-801.10956	114.52681	-226.13872	-825.54071	101.15249	-217.0175	-826.35876	104.22607	-254.71866
575	5.74	-587.0564	1419.0142	-171.87886	-600.79987	1392.4728	-163.04346	-599.37372	1395.0159	-200.91724	-595.66437	1035.4108	-48.703362	-607.32104	1056.2897	-298.8949	-431.78143	1046.5077	-107.94762	-433.6041	1052.4071	-225.71378	-420.86697	1105.4399	-170.94568	-416.06143	1080.3083	-183.94362	-413.48282	1073.4966	-145.19228	-478.7388	514.20135	-18.989809	-598.5733	568.26166	-43.708103	-622.92365	657.18787	-30.523777	-628.33899	800.48029	-29.734173	-491.64789	662.4248	-9.5791025	-515.96118	806.12836	7.0559225	-503.439	763.80701	13.26296	-498.11832	734.9035	11.976739	-533.65961	741.65662	24.031504	-442.7587	451.86514	-7.8036404				-279.49863	249.55385	-76.384682	-162.26804	213.67685	-58.656525										-116.85596	274.14081	-103.71239	-175.13197	64.226944	-98.009682	-205.49323	132.06184	-82.267372	-192.32344	104.2841	-76.513847	-206.58412	103.21934	-111.62693	-712.75452	529.00891	-310.93338	-758.21686	639.96375	-249.54755	-745.2323	718.68549	-250.69836	-702.81683	838.76312	-261.77408	-663.31464	680.89868	-339.80087	-612.62787	819.45111	-369.5047	-623.80109	766.70612	-375.34821	-643.08893	745.76709	-369.85635	-608.53412	731.33368	-368.9126	-713.75623	460.48013	-311.48862	-763.17444	460.75409	-260.13205	-715.93097	191.48853	-287.20953	-757.50781	209.98286	-238.28668	-716.01416	91.249107	-271.66269	-752.07843	393.22961	-204.65042	-747.40851	365.60434	-197.50613	-773.33881	364.42023	-224.66356	-640.43451	57.620903	-236.77133	-859.33093	68.975685	-226.39107	-802.51978	114.88808	-224.92673	-825.76819	100.21996	-216.75258	-826.79041	103.49408	-254.45969
576	5.75	-601.05585	1420.2391	-172.07253	-614.69849	1393.7037	-163.15146	-613.49347	1396.2195	-201.02325	-609.01324	1036.2434	-49.175407	-621.54425	1058.1932	-299.1427	-444.866	1047.2034	-108.14666	-447.52597	1053.4606	-226.00772	-434.75919	1106.1163	-171.01263	-430.10873	1081.1411	-183.98222	-427.05539	1074.254	-145.35439	-504.21292	513.95074	-19.199858	-622.87604	569.79681	-44.226089	-643.78125	659.36902	-30.844458	-645.04712	802.64563	-29.976156	-513.22205	661.02216	-10.200062	-532.78455	805.40125	7.232244	-521.23682	762.79144	13.092147	-517.08978	734.16785	11.805135	-551.68951	740.83862	23.703609	-468.59647	452.59991	-7.2987757				-302.20566	252.31046	-75.902451	-184.51434	219.22166	-57.65102										-141.45506	280.99124	-103.11536	-191.54135	68.733429	-96.794456	-225.52039	136.0623	-80.84256	-210.98203	108.62544	-75.072083	-225.04771	106.82319	-110.32915	-721.98639	528.97803	-311.68939	-768.92743	638.93848	-250.7524	-756.67645	718.15442	-250.55823	-715.53607	838.74237	-261.07367	-674.27795	681.51318	-340.1795	-626.62531	821.11334	-370.00281	-638.89984	768.43085	-377.10101	-657.28241	747.26306	-371.18716	-621.52637	733.12488	-369.92813	-722.2063	460.39011	-312.42529	-771.41663	459.75784	-260.74854	-718.85736	191.33682	-287.57019	-760.54706	209.08891	-238.51801	-716.53644	91.222977	-271.69101	-759.02551	392.47189	-205.22847	-753.7995	364.92679	-198.09328	-779.69958	363.20004	-225.22525	-640.61792	57.851547	-236.80519	-859.61591	68.502899	-226.24527	-802.66846	114.21681	-225.10957	-826.06421	99.640213	-216.77524	-826.99731	102.83382	-254.51219
577	5.76	-614.87787	1421.6195	-172.16728	-628.47675	1395.0933	-163.17163	-627.4892	1397.5758	-201.06618	-622.00085	1037.5193	-49.399879	-635.63904	1060.1626	-299.17368	-458.12875	1047.5647	-108.63569	-461.25583	1054.9833	-226.46687	-448.39456	1107.1965	-171.25089	-443.53717	1082.3705	-184.52553	-440.33365	1075.2628	-145.61972	-529.77948	514.10938	-19.848955	-647.02924	571.70679	-45.723637	-664.67993	661.8197	-32.18829	-661.57312	805.04694	-30.477816	-533.18658	660.4483	-10.322557	-549.4389	805.06659	7.3577528	-539.08698	762.16431	12.948246	-535.76471	733.51538	11.609108	-570.63574	741.85657	23.761568	-494.80054	453.34949	-7.3048301				-325.62219	256.15646	-75.431946	-207.67384	225.45906	-57.008774										-163.79192	286.59067	-102.85025	-213.79573	73.988571	-95.182426	-248.60158	142.33302	-79.855408	-234.72572	115.02032	-73.515976	-248.52516	112.99048	-108.81659	-730.22516	528.77625	-312.55325	-778.63	637.60193	-251.73062	-767.53876	717.172	-250.57549	-728.05347	838.41638	-260.55972	-683.90961	681.76257	-340.17825	-639.60211	822.5697	-369.96039	-651.28821	769.80371	-377.31183	-669.64569	748.35492	-371.55646	-633.13947	734.68011	-370.23425	-728.45227	459.74402	-312.31683	-778.75543	458.68369	-261.45847	-721.0882	191.03072	-287.87436	-763.18311	208.01343	-238.98085	-717.22797	91.375351	-271.95685	-765.4317	391.36902	-205.8582	-759.57318	363.94159	-198.72881	-785.49091	361.70752	-225.80785	-640.73889	58.010548	-236.9072	-859.78082	67.865211	-226.26088	-802.39404	113.33483	-225.51852	-826.33923	99.440704	-216.5519	-827.21277	102.48719	-254.4539
